<svg xmlns="http://www.w3.org/2000/svg" width="202.084" height="218.632" viewBox="0 0 202.084 218.632">
    <g id="Raggruppa_5" data-name="Raggruppa 5" transform="translate(-928.916 -223.461)">
      <path id="Tracciato_4" data-name="Tracciato 4" d="M56,22" transform="translate(922.5 399.5)" fill="none" stroke="#fff" stroke-width="20" stroke-dasharray="5 2"/>
      <g id="Rettangolo_42" data-name="Rettangolo 42" transform="translate(978.5 310)" fill="#fff" stroke="#fff" stroke-width="20" stroke-dasharray="5 2">
        <rect width="111" height="43" stroke="none"/>
        <rect x="10" y="10" width="91" height="23" fill="none"/>
      </g>
      <path id="Tracciato_6" data-name="Tracciato 6" d="M4833.025,829.413l-81.616-43.835v-115.6l81.616-41.467" transform="translate(-3812.493 -396.13)" fill="none" stroke="#fff" stroke-linejoin="bevel" stroke-width="20"/>
      <g id="Poligono_1" data-name="Poligono 1" transform="translate(1131 296) rotate(90)" fill="#fff" stroke-dasharray="5 2">
        <path d="M35.5,0,71,61H0Z" stroke="none"/>
        <path d="M 35.5 0 L 37.69515228271484 3.771949768066406 L 37.69513320922852 3.771938323974609 C 37.88970184326172 4.106269836425781 38.01494216918945 4.32147216796875 38.01494216918945 4.32147216796875 L 36.33905792236328 5.296779632568359 L 38.32717895507812 6.453804016113281 L 39.02094268798828 6.050060272216797 L 44.82251739501953 16.01897048950195 L 44.82249450683594 16.01895904541016 C 44.96749877929688 16.26811599731445 45.05679321289062 16.42155838012695 45.05679321289062 16.42155838012695 L 43.29743194580078 17.44544982910156 L 45.28555297851562 18.60247421264648 L 46.06279373168945 18.150146484375 L 48.57772827148438 22.47159194946289 L 43.29743194580078 25.54455184936523 L 43.65358734130859 25.75182342529297 L 41.98201751708984 28.62411499023438 L 49.58370590209961 24.20017623901367 C 49.58370590209961 24.20017623901367 49.82779693603516 24.61959457397461 50.16386795043945 25.19706726074219 L 50.17622756958008 25.21830749511719 C 50.17649078369141 25.2187614440918 50.17662048339844 25.2189826965332 50.17688751220703 25.21943664550781 L 50.18160247802734 25.2275390625 C 50.18273162841797 25.2294807434082 50.18369293212891 25.23112869262695 50.18482208251953 25.23307418823242 L 50.18802642822266 25.23857498168945 C 50.18855667114258 25.23949432373047 50.18924713134766 25.24068069458008 50.18978118896484 25.24159622192383 L 52.09866714477539 28.52165222167969 L 36.33903503417969 37.6932373046875 L 36.61173629760742 37.85194396972656 L 34.77966690063477 41 L 36.22033309936523 41 L 35.81879425048828 40.31002807617188 L 53.10464477539062 30.25023460388184 L 53.46591949462891 30.87101745605469 C 54.16172409057617 32.06662750244141 55.61958694458008 34.57170867919922 55.61958694458008 34.57170867919922 L 43.57797241210938 41.57952880859375 L 43.57797241210938 43.89356231689453 L 45.57797241210938 42.7296257019043 L 45.57797241210938 41 L 48.54998779296875 41 L 56.62555694580078 36.30026245117188 C 56.62555694580078 36.30026245117188 56.97177505493164 36.89516448974609 57.40719985961914 37.64335632324219 L 57.40901184082031 37.64646911621094 C 57.41166305541992 37.65102767944336 57.41437149047852 37.65568542480469 57.41703033447266 37.66025161743164 L 59.14052200317383 40.62174224853516 L 57.57797241210938 41.53109359741211 L 57.57797241210938 43.84512329101562 L 59.57797241210938 42.68119049072266 L 59.57797241210938 41.3734130859375 L 66.182373046875 52.72182846069336 L 64.57797241210938 53.65553665161133 L 64.57797241210938 55.96956634521484 L 66.57797241210938 54.80563354492188 L 66.57797241210938 53.40158462524414 L 71 61 C 71 61 70.53445434570312 61 69.90530395507812 61 L 69.85094451904297 61 C 68.54071807861328 61 66.57797241210938 61 66.57797241210938 61 L 66.57797241210938 60.59072113037109 L 65.87470245361328 61 L 55.93412399291992 61 C 54.47676086425781 61 52.57797241210938 61 52.57797241210938 61 L 52.57797241210938 60.63914108276367 L 51.95790100097656 61 L 47.85968399047852 61 C 46.68646240234375 61 45.57797241210938 61 45.57797241210938 61 L 45.57797241210938 56.61380767822266 L 45.37558746337891 56.73159027099609 L 43.57797241210938 53.64270782470703 L 43.57797241210938 61 C 43.57797241210938 61 38.57797241210938 61 38.57797241210938 61 L 38.57797241210938 44.48936462402344 L 38.33373641967773 44.63150024414062 L 36.57797241210938 41.61453628540039 L 36.57797241210938 61 C 36.57797241210938 61 31.57797241210938 61 31.57797241210938 61 L 31.57797241210938 46.50148391723633 L 30.57585144042969 48.22344207763672 L 29.57797241210938 47.64270782470703 L 29.57797241210938 61 C 29.57797241210938 61 24.57797241210938 61 24.57797241210938 61 L 24.57797241210938 58.52965545654297 L 23.53400039672852 60.32352828979492 L 22.57797241210938 59.76715087890625 L 22.57797241210938 61 C 22.57797241210938 61 21.72301483154297 61 20.72016525268555 61 L 10.77957916259766 61 C 10.65106201171875 61 10.57797241210938 61 10.57797241210938 61 L 10.57797241210938 60.88267135620117 L 8.577972412109375 59.71873474121094 L 8.577972412109375 61 C 8.577972412109375 61 7.769893646240234 61 6.803375244140625 61 L 0 61 C 0 61 0 61 0 61 L 0 61 C 0 61 0 61 0 61 L 1.72125244140625 58.04236221313477 L 3.577972412109375 59.1229133605957 L 3.577972412109375 56.80889511108398 L 2.72723388671875 56.31379318237305 C 2.72723388671875 56.31379318237305 3.110572814941406 55.65509796142578 3.577972412109375 54.85195922851562 L 3.577972412109375 54.85193634033203 L 8.577972412109375 46.2603874206543 L 8.577972412109375 46.26040267944336 C 8.693740844726562 46.06147766113281 8.763118743896484 45.94226455688477 8.763118743896484 45.94226455688477 L 10.57797241210938 46.99845123291016 L 10.57797241210938 44.68441772460938 L 9.769088745117188 44.21367645263672 L 11.63934707641602 41 C 12.00821304321289 40.36617279052734 12.28403091430664 39.89223480224609 12.28403091430664 39.89223480224609 L 14.18751525878906 41 L 15.57797241210938 41 L 15.57797241210938 41.80920028686523 L 17.57797241210938 42.9731330871582 L 17.57797241210938 41 L 18.16373443603516 41 L 13.29000091552734 38.16364669799805 L 14.61864471435547 35.88063812255859 C 15.22281265258789 34.84249877929688 15.80496978759766 33.84217834472656 15.80496978759766 33.84217834472656 L 28.10431671142578 41 L 29.57797241210938 41 L 29.57797241210938 41.85762023925781 L 31.57797241210938 43.02155303955078 L 31.57797241210938 41 L 32.08055877685547 41 L 16.81093978881836 32.11358642578125 L 18.45676422119141 29.28556251525879 C 18.45676422119141 29.28556251525879 18.45692443847656 29.28528213500977 18.45692443847656 29.28528213500977 L 18.56098937988281 29.10646820068359 C 18.56405258178711 29.1012020111084 18.56728363037109 29.09565544128418 18.57033538818359 29.09040641784668 L 18.57317733764648 29.08552932739258 C 18.57637023925781 29.08004188537598 18.57951354980469 29.07464027404785 18.58269500732422 29.06917190551758 L 18.5871696472168 29.06148338317871 C 18.58843994140625 29.05929946899414 18.58985137939453 29.05687713623047 18.59111785888672 29.05469703674316 L 18.5919303894043 29.05330276489258 C 18.59855651855469 29.04191398620605 18.6052131652832 29.03048133850098 18.61178970336914 29.0191764831543 L 18.61206436157227 29.01870727539062 C 18.62010955810547 29.00487899780273 18.62829208374023 28.99082183837891 18.63626480102539 28.97711944580078 L 18.6416130065918 28.96792984008789 C 18.64942932128906 28.95449829101562 18.65713882446289 28.94125747680664 18.66487884521484 28.92795944213867 L 18.6654167175293 28.92703247070312 C 18.66973114013672 28.91962051391602 18.67385482788086 28.91253280639648 18.67814254760742 28.9051628112793 L 18.67835998535156 28.90478897094727 C 18.68190002441406 28.89870834350586 18.68558502197266 28.89237213134766 18.68910980224609 28.88631820678711 L 18.69305419921875 28.87954330444336 C 18.70928192138672 28.85165405273438 18.72537612915039 28.82399749755859 18.74121856689453 28.79677963256836 L 18.74411773681641 28.79179382324219 C 19.08100509643555 28.21292495727539 19.32588195800781 27.79214859008789 19.32588195800781 27.79214859008789 L 33.24956893920898 35.89527130126953 L 32.29788208007812 34.25997161865234 L 33.35686111450195 33.6436767578125 L 31.36874008178711 32.48665618896484 L 31.2918815612793 32.53137969970703 L 31.21316146850586 32.39611053466797 L 20.33188247680664 26.06356048583984 C 20.33188247680664 26.06356048583984 22.84682464599609 21.74208831787109 22.84682464599609 21.74208831787109 L 26.1221809387207 23.64823532104492 L 25.25600051879883 22.15988159179688 L 26.39847183227539 21.49500274658203 L 24.41036224365234 20.33798599243164 L 24.25003051757812 20.43129348754883 L 24.0858039855957 20.14910507202148 L 23.8527946472168 20.01350021362305 L 28.37265396118164 12.24700927734375 C 29.07450485229492 11.04100799560547 29.88867568969727 9.641998291015625 29.88867568969727 9.641998291015625 L 31.3687744140625 10.50336837768555 L 33.35688400268555 9.346351623535156 L 31.36875915527344 8.189327239990234 L 30.40903472900391 8.747856140136719 L 35.5 0 Z M 40.31525421142578 13.39589309692383 L 38.32714462280273 12.2388801574707 L 36.33903503417969 13.39589309692383 L 38.32714462280273 14.55290985107422 L 40.31525421142578 13.39589309692383 Z M 33.35685348510742 17.44545364379883 L 31.36874389648438 16.28843688964844 L 29.38064575195312 17.4454460144043 L 31.36875915527344 18.60245895385742 L 33.35685348510742 17.44545364379883 Z M 40.31526184082031 21.49502182006836 L 38.32714080810547 20.3380012512207 L 36.33905029296875 21.4950065612793 L 38.32717132568359 22.65202331542969 L 40.31526184082031 21.49502182006836 Z M 33.35688400268555 25.5445671081543 L 31.36877059936523 24.38755035400391 L 29.38066101074219 25.54456329345703 L 31.3687744140625 26.70158004760742 L 33.35688400268555 25.5445671081543 Z M 40.31526184082031 29.59411239624023 L 38.32714462280273 28.43709182739258 L 36.33903503417969 29.59410667419434 L 38.32715225219727 30.75112724304199 L 40.31526184082031 29.59411239624023 Z M 24.57797241210938 44.73287200927734 L 22.57797241210938 43.56893920898438 L 22.57797241210938 45.88296890258789 L 24.57797241210938 47.04690170288086 L 24.57797241210938 44.73287200927734 Z M 52.57797241210938 46.75495910644531 L 52.57797241210938 44.44092559814453 L 50.57797241210938 45.60486221313477 L 50.57797241210938 47.91889190673828 L 52.57797241210938 46.75495910644531 Z M 17.57797241210938 48.75818634033203 L 15.57797241210938 47.59425354003906 L 15.57797241210938 49.90829086303711 L 17.57797241210938 51.07222747802734 L 17.57797241210938 48.75818634033203 Z M 59.57797241210938 50.78031921386719 L 59.57797241210938 48.46627044677734 L 57.57797241210938 49.63020706176758 L 57.57797241210938 51.94425201416016 L 59.57797241210938 50.78031921386719 Z M 45.57797241210938 50.8287239074707 L 45.57797241210938 48.51469421386719 L 43.57797241210938 49.67862701416016 L 43.57797241210938 51.99266052246094 L 45.57797241210938 50.8287239074707 Z M 10.57797241210938 52.78355026245117 L 8.577972412109375 51.61961364746094 L 8.577972412109375 53.93364715576172 L 10.57797241210938 55.09757995605469 L 10.57797241210938 52.78355026245117 Z M 24.57797241210938 52.83195495605469 L 22.57797241210938 51.66802215576172 L 22.57797241210938 53.98206329345703 L 24.57797241210938 55.14599990844727 L 24.57797241210938 52.83195495605469 Z M 52.57797241210938 54.85408782958984 L 52.57797241210938 52.5400390625 L 50.57797241210938 53.70397186279297 L 50.57797241210938 56.01802062988281 L 52.57797241210938 54.85408782958984 Z M 17.57797241210938 56.85731887817383 L 15.57797241210938 55.69338226318359 L 15.57797241210938 58.00741195678711 L 17.57797241210938 59.17134857177734 L 17.57797241210938 56.85731887817383 Z M 59.57797241210938 58.87940216064453 L 59.57797241210938 56.56537246704102 L 57.57797241210938 57.72930526733398 L 57.57797241210938 60.0433349609375 L 59.57797241210938 58.87940216064453 Z" stroke="none" fill="#fff"/>
      </g>
    </g>
  </svg>
  